<svg width="851" height="68" viewBox="0 0 851 68" fill="none" xmlns="http://www.w3.org/2000/svg">
<rect width="736.931" height="68" fill="white"/>
<path d="M217.686 41.7778V24.5981H224.166C225.307 24.5981 226.178 24.6528 226.779 24.7622C227.623 24.9028 228.33 25.1724 228.9 25.5708C229.471 25.9614 229.928 26.5122 230.271 27.2231C230.623 27.9341 230.799 28.7153 230.799 29.5669C230.799 31.0278 230.334 32.2661 229.404 33.2817C228.475 34.2896 226.795 34.7935 224.365 34.7935H219.959V41.7778H217.686ZM219.959 32.7661H224.4C225.869 32.7661 226.912 32.4927 227.529 31.9458C228.146 31.3989 228.455 30.6294 228.455 29.6372C228.455 28.9185 228.271 28.3052 227.904 27.7974C227.545 27.2817 227.068 26.9419 226.475 26.7778C226.092 26.6763 225.385 26.6255 224.354 26.6255H219.959V32.7661ZM233.377 41.7778V24.5981H235.486V41.7778H233.377ZM246.889 40.2427C246.107 40.9067 245.354 41.3755 244.627 41.6489C243.908 41.9224 243.135 42.0591 242.307 42.0591C240.939 42.0591 239.889 41.7271 239.154 41.063C238.42 40.3911 238.053 39.5356 238.053 38.4966C238.053 37.8872 238.189 37.3325 238.463 36.8325C238.744 36.3247 239.107 35.9185 239.553 35.6138C240.006 35.3091 240.514 35.0786 241.076 34.9224C241.49 34.813 242.115 34.7075 242.951 34.606C244.654 34.4028 245.908 34.1606 246.713 33.8794C246.721 33.5903 246.725 33.4067 246.725 33.3286C246.725 32.4692 246.525 31.8638 246.127 31.5122C245.588 31.0356 244.787 30.7974 243.725 30.7974C242.732 30.7974 241.998 30.9731 241.521 31.3247C241.053 31.6685 240.705 32.2817 240.479 33.1646L238.416 32.8833C238.604 32.0005 238.912 31.2896 239.342 30.7505C239.771 30.2036 240.393 29.7856 241.205 29.4966C242.018 29.1997 242.959 29.0513 244.029 29.0513C245.092 29.0513 245.955 29.1763 246.619 29.4263C247.283 29.6763 247.771 29.9927 248.084 30.3755C248.396 30.7505 248.615 31.2271 248.74 31.8052C248.811 32.1646 248.846 32.813 248.846 33.7505V36.563C248.846 38.5239 248.889 39.7661 248.975 40.2896C249.068 40.8052 249.248 41.3013 249.514 41.7778H247.311C247.092 41.3403 246.951 40.8286 246.889 40.2427ZM246.713 35.5317C245.947 35.8442 244.799 36.1099 243.268 36.3286C242.4 36.4536 241.787 36.5942 241.428 36.7505C241.068 36.9067 240.791 37.1372 240.596 37.4419C240.4 37.7388 240.303 38.0708 240.303 38.438C240.303 39.0005 240.514 39.4692 240.936 39.8442C241.365 40.2192 241.99 40.4067 242.811 40.4067C243.623 40.4067 244.346 40.231 244.979 39.8794C245.611 39.52 246.076 39.0317 246.373 38.4146C246.6 37.938 246.713 37.2349 246.713 36.3052V35.5317ZM256.732 39.8911L257.037 41.7544C256.443 41.8794 255.912 41.9419 255.443 41.9419C254.678 41.9419 254.084 41.8208 253.662 41.5786C253.24 41.3364 252.943 41.02 252.771 40.6294C252.6 40.231 252.514 39.3989 252.514 38.1333V30.9731H250.967V29.3325H252.514V26.2505L254.611 24.9849V29.3325H256.732V30.9731H254.611V38.2505C254.611 38.8521 254.646 39.2388 254.717 39.4106C254.795 39.5825 254.916 39.7192 255.08 39.8208C255.252 39.9224 255.494 39.9731 255.807 39.9731C256.041 39.9731 256.35 39.9458 256.732 39.8911ZM266.928 40.2427C266.146 40.9067 265.393 41.3755 264.666 41.6489C263.947 41.9224 263.174 42.0591 262.346 42.0591C260.979 42.0591 259.928 41.7271 259.193 41.063C258.459 40.3911 258.092 39.5356 258.092 38.4966C258.092 37.8872 258.229 37.3325 258.502 36.8325C258.783 36.3247 259.146 35.9185 259.592 35.6138C260.045 35.3091 260.553 35.0786 261.115 34.9224C261.529 34.813 262.154 34.7075 262.99 34.606C264.693 34.4028 265.947 34.1606 266.752 33.8794C266.76 33.5903 266.764 33.4067 266.764 33.3286C266.764 32.4692 266.564 31.8638 266.166 31.5122C265.627 31.0356 264.826 30.7974 263.764 30.7974C262.771 30.7974 262.037 30.9731 261.561 31.3247C261.092 31.6685 260.744 32.2817 260.518 33.1646L258.455 32.8833C258.643 32.0005 258.951 31.2896 259.381 30.7505C259.811 30.2036 260.432 29.7856 261.244 29.4966C262.057 29.1997 262.998 29.0513 264.068 29.0513C265.131 29.0513 265.994 29.1763 266.658 29.4263C267.322 29.6763 267.811 29.9927 268.123 30.3755C268.436 30.7505 268.654 31.2271 268.779 31.8052C268.85 32.1646 268.885 32.813 268.885 33.7505V36.563C268.885 38.5239 268.928 39.7661 269.014 40.2896C269.107 40.8052 269.287 41.3013 269.553 41.7778H267.35C267.131 41.3403 266.99 40.8286 266.928 40.2427ZM266.752 35.5317C265.986 35.8442 264.838 36.1099 263.307 36.3286C262.439 36.4536 261.826 36.5942 261.467 36.7505C261.107 36.9067 260.83 37.1372 260.635 37.4419C260.439 37.7388 260.342 38.0708 260.342 38.438C260.342 39.0005 260.553 39.4692 260.975 39.8442C261.404 40.2192 262.029 40.4067 262.85 40.4067C263.662 40.4067 264.385 40.231 265.018 39.8794C265.65 39.52 266.115 39.0317 266.412 38.4146C266.639 37.938 266.752 37.2349 266.752 36.3052V35.5317ZM272.67 41.7778V30.9731H270.807V29.3325H272.67V28.0083C272.67 27.1724 272.744 26.5513 272.893 26.145C273.096 25.5981 273.451 25.1567 273.959 24.8208C274.475 24.4771 275.193 24.3052 276.115 24.3052C276.709 24.3052 277.365 24.3755 278.084 24.5161L277.768 26.356C277.33 26.2778 276.916 26.2388 276.525 26.2388C275.885 26.2388 275.432 26.3755 275.166 26.6489C274.9 26.9224 274.768 27.4341 274.768 28.1841V29.3325H277.193V30.9731H274.768V41.7778H272.67ZM278.061 35.5552C278.061 33.2505 278.701 31.5435 279.982 30.4341C281.053 29.5122 282.357 29.0513 283.896 29.0513C285.607 29.0513 287.006 29.6138 288.092 30.7388C289.178 31.856 289.721 33.4028 289.721 35.3794C289.721 36.981 289.479 38.2427 288.994 39.1646C288.518 40.0786 287.818 40.7896 286.896 41.2974C285.982 41.8052 284.982 42.0591 283.896 42.0591C282.154 42.0591 280.744 41.5005 279.666 40.3833C278.596 39.2661 278.061 37.6567 278.061 35.5552ZM280.229 35.5552C280.229 37.1489 280.576 38.3442 281.271 39.1411C281.967 39.9302 282.842 40.3247 283.896 40.3247C284.943 40.3247 285.814 39.9263 286.51 39.1294C287.205 38.3325 287.553 37.1177 287.553 35.4849C287.553 33.9458 287.201 32.7817 286.498 31.9927C285.803 31.1958 284.936 30.7974 283.896 30.7974C282.842 30.7974 281.967 31.1919 281.271 31.981C280.576 32.77 280.229 33.9614 280.229 35.5552ZM292.182 41.7778V29.3325H294.08V31.2192C294.564 30.3364 295.01 29.7544 295.416 29.4731C295.83 29.1919 296.283 29.0513 296.775 29.0513C297.486 29.0513 298.209 29.2778 298.943 29.731L298.217 31.688C297.701 31.3833 297.186 31.231 296.67 31.231C296.209 31.231 295.795 31.3716 295.428 31.6528C295.061 31.9263 294.799 32.3091 294.643 32.8013C294.408 33.5513 294.291 34.3716 294.291 35.2622V41.7778H292.182ZM300.197 41.7778V29.3325H302.084V31.0786C302.475 30.4692 302.994 29.981 303.643 29.6138C304.291 29.2388 305.029 29.0513 305.857 29.0513C306.779 29.0513 307.533 29.2427 308.119 29.6255C308.713 30.0083 309.131 30.5435 309.373 31.231C310.357 29.7778 311.639 29.0513 313.217 29.0513C314.451 29.0513 315.4 29.395 316.064 30.0825C316.729 30.7622 317.061 31.813 317.061 33.2349V41.7778H314.963V33.938C314.963 33.0942 314.893 32.4888 314.752 32.1216C314.619 31.7466 314.373 31.4458 314.014 31.2192C313.654 30.9927 313.232 30.8794 312.748 30.8794C311.873 30.8794 311.146 31.1724 310.568 31.7583C309.99 32.3364 309.701 33.2661 309.701 34.5474V41.7778H307.592V33.6919C307.592 32.7544 307.42 32.0513 307.076 31.5825C306.732 31.1138 306.17 30.8794 305.389 30.8794C304.795 30.8794 304.244 31.0356 303.736 31.3481C303.236 31.6606 302.873 32.1177 302.646 32.7192C302.42 33.3208 302.307 34.188 302.307 35.3208V41.7778H300.197ZM328.311 40.2427C327.529 40.9067 326.775 41.3755 326.049 41.6489C325.33 41.9224 324.557 42.0591 323.729 42.0591C322.361 42.0591 321.311 41.7271 320.576 41.063C319.842 40.3911 319.475 39.5356 319.475 38.4966C319.475 37.8872 319.611 37.3325 319.885 36.8325C320.166 36.3247 320.529 35.9185 320.975 35.6138C321.428 35.3091 321.936 35.0786 322.498 34.9224C322.912 34.813 323.537 34.7075 324.373 34.606C326.076 34.4028 327.33 34.1606 328.135 33.8794C328.143 33.5903 328.146 33.4067 328.146 33.3286C328.146 32.4692 327.947 31.8638 327.549 31.5122C327.01 31.0356 326.209 30.7974 325.146 30.7974C324.154 30.7974 323.42 30.9731 322.943 31.3247C322.475 31.6685 322.127 32.2817 321.9 33.1646L319.838 32.8833C320.025 32.0005 320.334 31.2896 320.764 30.7505C321.193 30.2036 321.814 29.7856 322.627 29.4966C323.439 29.1997 324.381 29.0513 325.451 29.0513C326.514 29.0513 327.377 29.1763 328.041 29.4263C328.705 29.6763 329.193 29.9927 329.506 30.3755C329.818 30.7505 330.037 31.2271 330.162 31.8052C330.232 32.1646 330.268 32.813 330.268 33.7505V36.563C330.268 38.5239 330.311 39.7661 330.396 40.2896C330.49 40.8052 330.67 41.3013 330.936 41.7778H328.732C328.514 41.3403 328.373 40.8286 328.311 40.2427ZM328.135 35.5317C327.369 35.8442 326.221 36.1099 324.689 36.3286C323.822 36.4536 323.209 36.5942 322.85 36.7505C322.49 36.9067 322.213 37.1372 322.018 37.4419C321.822 37.7388 321.725 38.0708 321.725 38.438C321.725 39.0005 321.936 39.4692 322.357 39.8442C322.787 40.2192 323.412 40.4067 324.232 40.4067C325.045 40.4067 325.768 40.231 326.4 39.8794C327.033 39.52 327.498 39.0317 327.795 38.4146C328.021 37.938 328.135 37.2349 328.135 36.3052V35.5317ZM340.475 41.7778V24.5981H342.807L351.83 38.0864V24.5981H354.01V41.7778H351.678L342.654 28.2778V41.7778H340.475ZM365.693 40.2427C364.912 40.9067 364.158 41.3755 363.432 41.6489C362.713 41.9224 361.939 42.0591 361.111 42.0591C359.744 42.0591 358.693 41.7271 357.959 41.063C357.225 40.3911 356.857 39.5356 356.857 38.4966C356.857 37.8872 356.994 37.3325 357.268 36.8325C357.549 36.3247 357.912 35.9185 358.357 35.6138C358.811 35.3091 359.318 35.0786 359.881 34.9224C360.295 34.813 360.92 34.7075 361.756 34.606C363.459 34.4028 364.713 34.1606 365.518 33.8794C365.525 33.5903 365.529 33.4067 365.529 33.3286C365.529 32.4692 365.33 31.8638 364.932 31.5122C364.393 31.0356 363.592 30.7974 362.529 30.7974C361.537 30.7974 360.803 30.9731 360.326 31.3247C359.857 31.6685 359.51 32.2817 359.283 33.1646L357.221 32.8833C357.408 32.0005 357.717 31.2896 358.146 30.7505C358.576 30.2036 359.197 29.7856 360.01 29.4966C360.822 29.1997 361.764 29.0513 362.834 29.0513C363.896 29.0513 364.76 29.1763 365.424 29.4263C366.088 29.6763 366.576 29.9927 366.889 30.3755C367.201 30.7505 367.42 31.2271 367.545 31.8052C367.615 32.1646 367.65 32.813 367.65 33.7505V36.563C367.65 38.5239 367.693 39.7661 367.779 40.2896C367.873 40.8052 368.053 41.3013 368.318 41.7778H366.115C365.896 41.3403 365.756 40.8286 365.693 40.2427ZM365.518 35.5317C364.752 35.8442 363.604 36.1099 362.072 36.3286C361.205 36.4536 360.592 36.5942 360.232 36.7505C359.873 36.9067 359.596 37.1372 359.4 37.4419C359.205 37.7388 359.107 38.0708 359.107 38.438C359.107 39.0005 359.318 39.4692 359.74 39.8442C360.17 40.2192 360.795 40.4067 361.615 40.4067C362.428 40.4067 363.15 40.231 363.783 39.8794C364.416 39.52 364.881 39.0317 365.178 38.4146C365.404 37.938 365.518 37.2349 365.518 36.3052V35.5317ZM379.053 37.2192L381.127 37.4888C380.9 38.9185 380.318 40.0396 379.381 40.8521C378.451 41.6567 377.307 42.0591 375.947 42.0591C374.244 42.0591 372.873 41.5044 371.834 40.395C370.803 39.2778 370.287 37.6802 370.287 35.6021C370.287 34.2583 370.51 33.0825 370.955 32.0747C371.4 31.0669 372.076 30.313 372.982 29.813C373.896 29.3052 374.889 29.0513 375.959 29.0513C377.311 29.0513 378.416 29.395 379.275 30.0825C380.135 30.7622 380.686 31.731 380.928 32.9888L378.877 33.3052C378.682 32.4692 378.334 31.8403 377.834 31.4185C377.342 30.9966 376.744 30.7856 376.041 30.7856C374.979 30.7856 374.115 31.1685 373.451 31.9341C372.787 32.6919 372.455 33.895 372.455 35.5435C372.455 37.2153 372.775 38.4302 373.416 39.188C374.057 39.9458 374.893 40.3247 375.924 40.3247C376.752 40.3247 377.443 40.0708 377.998 39.563C378.553 39.0552 378.904 38.2739 379.053 37.2192ZM382.943 27.0239V24.5981H385.053V27.0239H382.943ZM382.943 41.7778V29.3325H385.053V41.7778H382.943ZM387.49 35.5552C387.49 33.2505 388.131 31.5435 389.412 30.4341C390.482 29.5122 391.787 29.0513 393.326 29.0513C395.037 29.0513 396.436 29.6138 397.521 30.7388C398.607 31.856 399.15 33.4028 399.15 35.3794C399.15 36.981 398.908 38.2427 398.424 39.1646C397.947 40.0786 397.248 40.7896 396.326 41.2974C395.412 41.8052 394.412 42.0591 393.326 42.0591C391.584 42.0591 390.174 41.5005 389.096 40.3833C388.025 39.2661 387.49 37.6567 387.49 35.5552ZM389.658 35.5552C389.658 37.1489 390.006 38.3442 390.701 39.1411C391.396 39.9302 392.271 40.3247 393.326 40.3247C394.373 40.3247 395.244 39.9263 395.939 39.1294C396.635 38.3325 396.982 37.1177 396.982 35.4849C396.982 33.9458 396.631 32.7817 395.928 31.9927C395.232 31.1958 394.365 30.7974 393.326 30.7974C392.271 30.7974 391.396 31.1919 390.701 31.981C390.006 32.77 389.658 33.9614 389.658 35.5552ZM401.635 41.7778V29.3325H403.533V31.1021C404.447 29.7349 405.768 29.0513 407.494 29.0513C408.244 29.0513 408.932 29.188 409.557 29.4614C410.189 29.7271 410.662 30.0786 410.975 30.5161C411.287 30.9536 411.506 31.4731 411.631 32.0747C411.709 32.4653 411.748 33.1489 411.748 34.1255V41.7778H409.639V34.2075C409.639 33.3481 409.557 32.7075 409.393 32.2856C409.229 31.856 408.936 31.5161 408.514 31.2661C408.1 31.0083 407.611 30.8794 407.049 30.8794C406.15 30.8794 405.373 31.1646 404.717 31.7349C404.068 32.3052 403.744 33.3872 403.744 34.981V41.7778H401.635ZM423.115 40.2427C422.334 40.9067 421.58 41.3755 420.854 41.6489C420.135 41.9224 419.361 42.0591 418.533 42.0591C417.166 42.0591 416.115 41.7271 415.381 41.063C414.646 40.3911 414.279 39.5356 414.279 38.4966C414.279 37.8872 414.416 37.3325 414.689 36.8325C414.971 36.3247 415.334 35.9185 415.779 35.6138C416.232 35.3091 416.74 35.0786 417.303 34.9224C417.717 34.813 418.342 34.7075 419.178 34.606C420.881 34.4028 422.135 34.1606 422.939 33.8794C422.947 33.5903 422.951 33.4067 422.951 33.3286C422.951 32.4692 422.752 31.8638 422.354 31.5122C421.814 31.0356 421.014 30.7974 419.951 30.7974C418.959 30.7974 418.225 30.9731 417.748 31.3247C417.279 31.6685 416.932 32.2817 416.705 33.1646L414.643 32.8833C414.83 32.0005 415.139 31.2896 415.568 30.7505C415.998 30.2036 416.619 29.7856 417.432 29.4966C418.244 29.1997 419.186 29.0513 420.256 29.0513C421.318 29.0513 422.182 29.1763 422.846 29.4263C423.51 29.6763 423.998 29.9927 424.311 30.3755C424.623 30.7505 424.842 31.2271 424.967 31.8052C425.037 32.1646 425.072 32.813 425.072 33.7505V36.563C425.072 38.5239 425.115 39.7661 425.201 40.2896C425.295 40.8052 425.475 41.3013 425.74 41.7778H423.537C423.318 41.3403 423.178 40.8286 423.115 40.2427ZM422.939 35.5317C422.174 35.8442 421.025 36.1099 419.494 36.3286C418.627 36.4536 418.014 36.5942 417.654 36.7505C417.295 36.9067 417.018 37.1372 416.822 37.4419C416.627 37.7388 416.529 38.0708 416.529 38.438C416.529 39.0005 416.74 39.4692 417.162 39.8442C417.592 40.2192 418.217 40.4067 419.037 40.4067C419.85 40.4067 420.572 40.231 421.205 39.8794C421.838 39.52 422.303 39.0317 422.6 38.4146C422.826 37.938 422.939 37.2349 422.939 36.3052V35.5317ZM428.307 41.7778V24.5981H430.416V41.7778H428.307ZM448.451 41.7778V40.2075C447.662 41.4419 446.502 42.0591 444.971 42.0591C443.979 42.0591 443.064 41.7856 442.229 41.2388C441.4 40.6919 440.756 39.9302 440.295 38.9536C439.842 37.9692 439.615 36.8403 439.615 35.5669C439.615 34.3247 439.822 33.1997 440.236 32.1919C440.65 31.1763 441.271 30.3989 442.1 29.8599C442.928 29.3208 443.854 29.0513 444.877 29.0513C445.627 29.0513 446.295 29.2114 446.881 29.5317C447.467 29.8442 447.943 30.2544 448.311 30.7622V24.5981H450.408V41.7778H448.451ZM441.783 35.5669C441.783 37.1606 442.119 38.3521 442.791 39.1411C443.463 39.9302 444.256 40.3247 445.17 40.3247C446.092 40.3247 446.873 39.9497 447.514 39.1997C448.162 38.4419 448.486 37.2896 448.486 35.7427C448.486 34.0396 448.158 32.7896 447.502 31.9927C446.846 31.1958 446.037 30.7974 445.076 30.7974C444.139 30.7974 443.354 31.1802 442.721 31.9458C442.096 32.7114 441.783 33.9185 441.783 35.5669ZM462.256 37.77L464.436 38.0396C464.092 39.313 463.455 40.3013 462.525 41.0044C461.596 41.7075 460.408 42.0591 458.963 42.0591C457.143 42.0591 455.697 41.5005 454.627 40.3833C453.564 39.2583 453.033 37.6841 453.033 35.6606C453.033 33.5669 453.572 31.9419 454.65 30.7856C455.729 29.6294 457.127 29.0513 458.846 29.0513C460.51 29.0513 461.869 29.6177 462.924 30.7505C463.979 31.8833 464.506 33.4771 464.506 35.5317C464.506 35.6567 464.502 35.8442 464.494 36.0942H455.213C455.291 37.4614 455.678 38.5083 456.373 39.2349C457.068 39.9614 457.936 40.3247 458.975 40.3247C459.748 40.3247 460.408 40.1216 460.955 39.7153C461.502 39.3091 461.936 38.6606 462.256 37.77ZM455.33 34.3599H462.279C462.186 33.313 461.92 32.5278 461.482 32.0044C460.811 31.1919 459.939 30.7856 458.869 30.7856C457.9 30.7856 457.084 31.1099 456.42 31.7583C455.764 32.4067 455.4 33.2739 455.33 34.3599ZM474.045 41.7778V24.5981H479.963C481.299 24.5981 482.318 24.6802 483.021 24.8442C484.006 25.0708 484.846 25.481 485.541 26.0747C486.447 26.8403 487.123 27.8208 487.568 29.0161C488.021 30.2036 488.248 31.563 488.248 33.0942C488.248 34.3989 488.096 35.5552 487.791 36.563C487.486 37.5708 487.096 38.4067 486.619 39.0708C486.143 39.7271 485.619 40.2466 485.049 40.6294C484.486 41.0044 483.803 41.2896 482.998 41.4849C482.201 41.6802 481.283 41.7778 480.244 41.7778H474.045ZM476.318 39.7505H479.986C481.119 39.7505 482.006 39.645 482.646 39.4341C483.295 39.2231 483.811 38.9263 484.193 38.5435C484.732 38.0044 485.15 37.2817 485.447 36.3755C485.752 35.4614 485.904 34.356 485.904 33.0591C485.904 31.2622 485.607 29.8833 485.014 28.9224C484.428 27.9536 483.713 27.3052 482.869 26.9771C482.26 26.7427 481.279 26.6255 479.928 26.6255H476.318V39.7505ZM499.24 40.2427C498.459 40.9067 497.705 41.3755 496.979 41.6489C496.26 41.9224 495.486 42.0591 494.658 42.0591C493.291 42.0591 492.24 41.7271 491.506 41.063C490.771 40.3911 490.404 39.5356 490.404 38.4966C490.404 37.8872 490.541 37.3325 490.814 36.8325C491.096 36.3247 491.459 35.9185 491.904 35.6138C492.357 35.3091 492.865 35.0786 493.428 34.9224C493.842 34.813 494.467 34.7075 495.303 34.606C497.006 34.4028 498.26 34.1606 499.064 33.8794C499.072 33.5903 499.076 33.4067 499.076 33.3286C499.076 32.4692 498.877 31.8638 498.479 31.5122C497.939 31.0356 497.139 30.7974 496.076 30.7974C495.084 30.7974 494.35 30.9731 493.873 31.3247C493.404 31.6685 493.057 32.2817 492.83 33.1646L490.768 32.8833C490.955 32.0005 491.264 31.2896 491.693 30.7505C492.123 30.2036 492.744 29.7856 493.557 29.4966C494.369 29.1997 495.311 29.0513 496.381 29.0513C497.443 29.0513 498.307 29.1763 498.971 29.4263C499.635 29.6763 500.123 29.9927 500.436 30.3755C500.748 30.7505 500.967 31.2271 501.092 31.8052C501.162 32.1646 501.197 32.813 501.197 33.7505V36.563C501.197 38.5239 501.24 39.7661 501.326 40.2896C501.42 40.8052 501.6 41.3013 501.865 41.7778H499.662C499.443 41.3403 499.303 40.8286 499.24 40.2427ZM499.064 35.5317C498.299 35.8442 497.15 36.1099 495.619 36.3286C494.752 36.4536 494.139 36.5942 493.779 36.7505C493.42 36.9067 493.143 37.1372 492.947 37.4419C492.752 37.7388 492.654 38.0708 492.654 38.438C492.654 39.0005 492.865 39.4692 493.287 39.8442C493.717 40.2192 494.342 40.4067 495.162 40.4067C495.975 40.4067 496.697 40.231 497.33 39.8794C497.963 39.52 498.428 39.0317 498.725 38.4146C498.951 37.938 499.064 37.2349 499.064 36.3052V35.5317ZM509.084 39.8911L509.389 41.7544C508.795 41.8794 508.264 41.9419 507.795 41.9419C507.029 41.9419 506.436 41.8208 506.014 41.5786C505.592 41.3364 505.295 41.02 505.123 40.6294C504.951 40.231 504.865 39.3989 504.865 38.1333V30.9731H503.318V29.3325H504.865V26.2505L506.963 24.9849V29.3325H509.084V30.9731H506.963V38.2505C506.963 38.8521 506.998 39.2388 507.068 39.4106C507.146 39.5825 507.268 39.7192 507.432 39.8208C507.604 39.9224 507.846 39.9731 508.158 39.9731C508.393 39.9731 508.701 39.9458 509.084 39.8911ZM510.373 35.5552C510.373 33.2505 511.014 31.5435 512.295 30.4341C513.365 29.5122 514.67 29.0513 516.209 29.0513C517.92 29.0513 519.318 29.6138 520.404 30.7388C521.49 31.856 522.033 33.4028 522.033 35.3794C522.033 36.981 521.791 38.2427 521.307 39.1646C520.83 40.0786 520.131 40.7896 519.209 41.2974C518.295 41.8052 517.295 42.0591 516.209 42.0591C514.467 42.0591 513.057 41.5005 511.979 40.3833C510.908 39.2661 510.373 37.6567 510.373 35.5552ZM512.541 35.5552C512.541 37.1489 512.889 38.3442 513.584 39.1411C514.279 39.9302 515.154 40.3247 516.209 40.3247C517.256 40.3247 518.127 39.9263 518.822 39.1294C519.518 38.3325 519.865 37.1177 519.865 35.4849C519.865 33.9458 519.514 32.7817 518.811 31.9927C518.115 31.1958 517.248 30.7974 516.209 30.7974C515.154 30.7974 514.279 31.1919 513.584 31.981C512.889 32.77 512.541 33.9614 512.541 35.5552ZM523.674 38.063L525.76 37.7349C525.877 38.5708 526.201 39.2114 526.732 39.6567C527.271 40.1021 528.021 40.3247 528.982 40.3247C529.951 40.3247 530.67 40.1294 531.139 39.7388C531.607 39.3403 531.842 38.8755 531.842 38.3442C531.842 37.8677 531.635 37.4927 531.221 37.2192C530.932 37.0317 530.213 36.7935 529.064 36.5044C527.518 36.1138 526.443 35.7778 525.842 35.4966C525.248 35.2075 524.795 34.813 524.482 34.313C524.178 33.8052 524.025 33.2466 524.025 32.6372C524.025 32.0825 524.15 31.5708 524.4 31.1021C524.658 30.6255 525.006 30.231 525.443 29.9185C525.771 29.6763 526.217 29.4731 526.779 29.3091C527.35 29.1372 527.959 29.0513 528.607 29.0513C529.584 29.0513 530.439 29.1919 531.174 29.4731C531.916 29.7544 532.463 30.1372 532.814 30.6216C533.166 31.0981 533.408 31.7388 533.541 32.5435L531.479 32.8247C531.385 32.1841 531.111 31.6841 530.658 31.3247C530.213 30.9653 529.58 30.7856 528.76 30.7856C527.791 30.7856 527.1 30.9458 526.686 31.2661C526.271 31.5864 526.064 31.9614 526.064 32.3911C526.064 32.6646 526.15 32.9106 526.322 33.1294C526.494 33.356 526.764 33.5435 527.131 33.6919C527.342 33.77 527.963 33.9497 528.994 34.231C530.486 34.6294 531.525 34.9575 532.111 35.2153C532.705 35.4653 533.17 35.8325 533.506 36.3169C533.842 36.8013 534.01 37.4028 534.01 38.1216C534.01 38.8247 533.803 39.4888 533.389 40.1138C532.982 40.731 532.393 41.2114 531.619 41.5552C530.846 41.8911 529.971 42.0591 528.994 42.0591C527.377 42.0591 526.143 41.7231 525.291 41.0513C524.447 40.3794 523.908 39.3833 523.674 38.063ZM551.506 35.0396V33.0239L558.783 33.0122V39.3872C557.666 40.2778 556.514 40.9497 555.326 41.4028C554.139 41.8481 552.92 42.0708 551.67 42.0708C549.982 42.0708 548.447 41.7114 547.064 40.9927C545.689 40.2661 544.65 39.2192 543.947 37.8521C543.244 36.4849 542.893 34.9575 542.893 33.27C542.893 31.5981 543.24 30.0396 543.936 28.5942C544.639 27.1411 545.646 26.063 546.959 25.3599C548.271 24.6567 549.783 24.3052 551.494 24.3052C552.736 24.3052 553.857 24.5083 554.857 24.9146C555.865 25.313 556.654 25.8716 557.225 26.5903C557.795 27.3091 558.229 28.2466 558.525 29.4028L556.475 29.9653C556.217 29.0903 555.896 28.4028 555.514 27.9028C555.131 27.4028 554.584 27.0044 553.873 26.7075C553.162 26.4028 552.373 26.2505 551.506 26.2505C550.467 26.2505 549.568 26.4106 548.811 26.731C548.053 27.0435 547.439 27.4575 546.971 27.9731C546.51 28.4888 546.15 29.0552 545.893 29.6724C545.455 30.7349 545.236 31.8872 545.236 33.1294C545.236 34.6606 545.498 35.9419 546.021 36.9731C546.553 38.0044 547.322 38.77 548.33 39.27C549.338 39.77 550.408 40.02 551.541 40.02C552.525 40.02 553.486 39.8325 554.424 39.4575C555.361 39.0747 556.072 38.6685 556.557 38.2388V35.0396H551.506ZM570.396 37.77L572.576 38.0396C572.232 39.313 571.596 40.3013 570.666 41.0044C569.736 41.7075 568.549 42.0591 567.104 42.0591C565.283 42.0591 563.838 41.5005 562.768 40.3833C561.705 39.2583 561.174 37.6841 561.174 35.6606C561.174 33.5669 561.713 31.9419 562.791 30.7856C563.869 29.6294 565.268 29.0513 566.986 29.0513C568.65 29.0513 570.01 29.6177 571.064 30.7505C572.119 31.8833 572.646 33.4771 572.646 35.5317C572.646 35.6567 572.643 35.8442 572.635 36.0942H563.354C563.432 37.4614 563.818 38.5083 564.514 39.2349C565.209 39.9614 566.076 40.3247 567.115 40.3247C567.889 40.3247 568.549 40.1216 569.096 39.7153C569.643 39.3091 570.076 38.6606 570.396 37.77ZM563.471 34.3599H570.42C570.326 33.313 570.061 32.5278 569.623 32.0044C568.951 31.1919 568.08 30.7856 567.01 30.7856C566.041 30.7856 565.225 31.1099 564.561 31.7583C563.904 32.4067 563.541 33.2739 563.471 34.3599ZM574.451 35.5552C574.451 33.2505 575.092 31.5435 576.373 30.4341C577.443 29.5122 578.748 29.0513 580.287 29.0513C581.998 29.0513 583.396 29.6138 584.482 30.7388C585.568 31.856 586.111 33.4028 586.111 35.3794C586.111 36.981 585.869 38.2427 585.385 39.1646C584.908 40.0786 584.209 40.7896 583.287 41.2974C582.373 41.8052 581.373 42.0591 580.287 42.0591C578.545 42.0591 577.135 41.5005 576.057 40.3833C574.986 39.2661 574.451 37.6567 574.451 35.5552ZM576.619 35.5552C576.619 37.1489 576.967 38.3442 577.662 39.1411C578.357 39.9302 579.232 40.3247 580.287 40.3247C581.334 40.3247 582.205 39.9263 582.9 39.1294C583.596 38.3325 583.943 37.1177 583.943 35.4849C583.943 33.9458 583.592 32.7817 582.889 31.9927C582.193 31.1958 581.326 30.7974 580.287 30.7974C579.232 30.7974 578.357 31.1919 577.662 31.981C576.967 32.77 576.619 33.9614 576.619 35.5552ZM588.572 41.7778V29.3325H590.471V31.2192C590.955 30.3364 591.4 29.7544 591.807 29.4731C592.221 29.1919 592.674 29.0513 593.166 29.0513C593.877 29.0513 594.6 29.2778 595.334 29.731L594.607 31.688C594.092 31.3833 593.576 31.231 593.061 31.231C592.6 31.231 592.186 31.3716 591.818 31.6528C591.451 31.9263 591.189 32.3091 591.033 32.8013C590.799 33.5513 590.682 34.3716 590.682 35.2622V41.7778H588.572ZM596.564 41.7778V29.3325H598.463V31.2192C598.947 30.3364 599.393 29.7544 599.799 29.4731C600.213 29.1919 600.666 29.0513 601.158 29.0513C601.869 29.0513 602.592 29.2778 603.326 29.731L602.6 31.688C602.084 31.3833 601.568 31.231 601.053 31.231C600.592 31.231 600.178 31.3716 599.811 31.6528C599.443 31.9263 599.182 32.3091 599.025 32.8013C598.791 33.5513 598.674 34.3716 598.674 35.2622V41.7778H596.564ZM613.1 37.77L615.279 38.0396C614.936 39.313 614.299 40.3013 613.369 41.0044C612.439 41.7075 611.252 42.0591 609.807 42.0591C607.986 42.0591 606.541 41.5005 605.471 40.3833C604.408 39.2583 603.877 37.6841 603.877 35.6606C603.877 33.5669 604.416 31.9419 605.494 30.7856C606.572 29.6294 607.971 29.0513 609.689 29.0513C611.354 29.0513 612.713 29.6177 613.768 30.7505C614.822 31.8833 615.35 33.4771 615.35 35.5317C615.35 35.6567 615.346 35.8442 615.338 36.0942H606.057C606.135 37.4614 606.521 38.5083 607.217 39.2349C607.912 39.9614 608.779 40.3247 609.818 40.3247C610.592 40.3247 611.252 40.1216 611.799 39.7153C612.346 39.3091 612.779 38.6606 613.1 37.77ZM606.174 34.3599H613.123C613.029 33.313 612.764 32.5278 612.326 32.0044C611.654 31.1919 610.783 30.7856 609.713 30.7856C608.744 30.7856 607.928 31.1099 607.264 31.7583C606.607 32.4067 606.244 33.2739 606.174 34.3599ZM618.443 41.7778V30.9731H616.58V29.3325H618.443V28.0083C618.443 27.1724 618.518 26.5513 618.666 26.145C618.869 25.5981 619.225 25.1567 619.732 24.8208C620.248 24.4771 620.967 24.3052 621.889 24.3052C622.482 24.3052 623.139 24.3755 623.857 24.5161L623.541 26.356C623.104 26.2778 622.689 26.2388 622.299 26.2388C621.658 26.2388 621.205 26.3755 620.939 26.6489C620.674 26.9224 620.541 27.4341 620.541 28.1841V29.3325H622.967V30.9731H620.541V41.7778H618.443ZM633.139 37.77L635.318 38.0396C634.975 39.313 634.338 40.3013 633.408 41.0044C632.479 41.7075 631.291 42.0591 629.846 42.0591C628.025 42.0591 626.58 41.5005 625.51 40.3833C624.447 39.2583 623.916 37.6841 623.916 35.6606C623.916 33.5669 624.455 31.9419 625.533 30.7856C626.611 29.6294 628.01 29.0513 629.729 29.0513C631.393 29.0513 632.752 29.6177 633.807 30.7505C634.861 31.8833 635.389 33.4771 635.389 35.5317C635.389 35.6567 635.385 35.8442 635.377 36.0942H626.096C626.174 37.4614 626.561 38.5083 627.256 39.2349C627.951 39.9614 628.818 40.3247 629.857 40.3247C630.631 40.3247 631.291 40.1216 631.838 39.7153C632.385 39.3091 632.818 38.6606 633.139 37.77ZM626.213 34.3599H633.162C633.068 33.313 632.803 32.5278 632.365 32.0044C631.693 31.1919 630.822 30.7856 629.752 30.7856C628.783 30.7856 627.967 31.1099 627.303 31.7583C626.646 32.4067 626.283 33.2739 626.213 34.3599ZM637.955 41.7778V29.3325H639.854V31.2192C640.338 30.3364 640.783 29.7544 641.189 29.4731C641.604 29.1919 642.057 29.0513 642.549 29.0513C643.26 29.0513 643.982 29.2778 644.717 29.731L643.99 31.688C643.475 31.3833 642.959 31.231 642.443 31.231C641.982 31.231 641.568 31.3716 641.201 31.6528C640.834 31.9263 640.572 32.3091 640.416 32.8013C640.182 33.5513 640.064 34.3716 640.064 35.2622V41.7778H637.955ZM654.49 37.77L656.67 38.0396C656.326 39.313 655.689 40.3013 654.76 41.0044C653.83 41.7075 652.643 42.0591 651.197 42.0591C649.377 42.0591 647.932 41.5005 646.861 40.3833C645.799 39.2583 645.268 37.6841 645.268 35.6606C645.268 33.5669 645.807 31.9419 646.885 30.7856C647.963 29.6294 649.361 29.0513 651.08 29.0513C652.744 29.0513 654.104 29.6177 655.158 30.7505C656.213 31.8833 656.74 33.4771 656.74 35.5317C656.74 35.6567 656.736 35.8442 656.729 36.0942H647.447C647.525 37.4614 647.912 38.5083 648.607 39.2349C649.303 39.9614 650.17 40.3247 651.209 40.3247C651.982 40.3247 652.643 40.1216 653.189 39.7153C653.736 39.3091 654.17 38.6606 654.49 37.77ZM647.564 34.3599H654.514C654.42 33.313 654.154 32.5278 653.717 32.0044C653.045 31.1919 652.174 30.7856 651.104 30.7856C650.135 30.7856 649.318 31.1099 648.654 31.7583C647.998 32.4067 647.635 33.2739 647.564 34.3599ZM659.33 41.7778V29.3325H661.229V31.1021C662.143 29.7349 663.463 29.0513 665.189 29.0513C665.939 29.0513 666.627 29.188 667.252 29.4614C667.885 29.7271 668.357 30.0786 668.67 30.5161C668.982 30.9536 669.201 31.4731 669.326 32.0747C669.404 32.4653 669.443 33.1489 669.443 34.1255V41.7778H667.334V34.2075C667.334 33.3481 667.252 32.7075 667.088 32.2856C666.924 31.856 666.631 31.5161 666.209 31.2661C665.795 31.0083 665.307 30.8794 664.744 30.8794C663.846 30.8794 663.068 31.1646 662.412 31.7349C661.764 32.3052 661.439 33.3872 661.439 34.981V41.7778H659.33ZM680.811 37.2192L682.885 37.4888C682.658 38.9185 682.076 40.0396 681.139 40.8521C680.209 41.6567 679.064 42.0591 677.705 42.0591C676.002 42.0591 674.631 41.5044 673.592 40.395C672.561 39.2778 672.045 37.6802 672.045 35.6021C672.045 34.2583 672.268 33.0825 672.713 32.0747C673.158 31.0669 673.834 30.313 674.74 29.813C675.654 29.3052 676.646 29.0513 677.717 29.0513C679.068 29.0513 680.174 29.395 681.033 30.0825C681.893 30.7622 682.443 31.731 682.686 32.9888L680.635 33.3052C680.439 32.4692 680.092 31.8403 679.592 31.4185C679.1 30.9966 678.502 30.7856 677.799 30.7856C676.736 30.7856 675.873 31.1685 675.209 31.9341C674.545 32.6919 674.213 33.895 674.213 35.5435C674.213 37.2153 674.533 38.4302 675.174 39.188C675.814 39.9458 676.65 40.3247 677.682 40.3247C678.51 40.3247 679.201 40.0708 679.756 39.563C680.311 39.0552 680.662 38.2739 680.811 37.2192ZM684.701 27.0239V24.5981H686.811V27.0239H684.701ZM684.701 41.7778V29.3325H686.811V41.7778H684.701ZM698.154 40.2427C697.373 40.9067 696.619 41.3755 695.893 41.6489C695.174 41.9224 694.4 42.0591 693.572 42.0591C692.205 42.0591 691.154 41.7271 690.42 41.063C689.686 40.3911 689.318 39.5356 689.318 38.4966C689.318 37.8872 689.455 37.3325 689.729 36.8325C690.01 36.3247 690.373 35.9185 690.818 35.6138C691.271 35.3091 691.779 35.0786 692.342 34.9224C692.756 34.813 693.381 34.7075 694.217 34.606C695.92 34.4028 697.174 34.1606 697.979 33.8794C697.986 33.5903 697.99 33.4067 697.99 33.3286C697.99 32.4692 697.791 31.8638 697.393 31.5122C696.854 31.0356 696.053 30.7974 694.99 30.7974C693.998 30.7974 693.264 30.9731 692.787 31.3247C692.318 31.6685 691.971 32.2817 691.744 33.1646L689.682 32.8833C689.869 32.0005 690.178 31.2896 690.607 30.7505C691.037 30.2036 691.658 29.7856 692.471 29.4966C693.283 29.1997 694.225 29.0513 695.295 29.0513C696.357 29.0513 697.221 29.1763 697.885 29.4263C698.549 29.6763 699.037 29.9927 699.35 30.3755C699.662 30.7505 699.881 31.2271 700.006 31.8052C700.076 32.1646 700.111 32.813 700.111 33.7505V36.563C700.111 38.5239 700.154 39.7661 700.24 40.2896C700.334 40.8052 700.514 41.3013 700.779 41.7778H698.576C698.357 41.3403 698.217 40.8286 698.154 40.2427ZM697.979 35.5317C697.213 35.8442 696.064 36.1099 694.533 36.3286C693.666 36.4536 693.053 36.5942 692.693 36.7505C692.334 36.9067 692.057 37.1372 691.861 37.4419C691.666 37.7388 691.568 38.0708 691.568 38.438C691.568 39.0005 691.779 39.4692 692.201 39.8442C692.631 40.2192 693.256 40.4067 694.076 40.4067C694.889 40.4067 695.611 40.231 696.244 39.8794C696.877 39.52 697.342 39.0317 697.639 38.4146C697.865 37.938 697.979 37.2349 697.979 36.3052V35.5317ZM711.467 41.7778V40.2075C710.678 41.4419 709.518 42.0591 707.986 42.0591C706.994 42.0591 706.08 41.7856 705.244 41.2388C704.416 40.6919 703.771 39.9302 703.311 38.9536C702.857 37.9692 702.631 36.8403 702.631 35.5669C702.631 34.3247 702.838 33.1997 703.252 32.1919C703.666 31.1763 704.287 30.3989 705.115 29.8599C705.943 29.3208 706.869 29.0513 707.893 29.0513C708.643 29.0513 709.311 29.2114 709.896 29.5317C710.482 29.8442 710.959 30.2544 711.326 30.7622V24.5981H713.424V41.7778H711.467ZM704.799 35.5669C704.799 37.1606 705.135 38.3521 705.807 39.1411C706.479 39.9302 707.271 40.3247 708.186 40.3247C709.107 40.3247 709.889 39.9497 710.529 39.1997C711.178 38.4419 711.502 37.2896 711.502 35.7427C711.502 34.0396 711.174 32.7896 710.518 31.9927C709.861 31.1958 709.053 30.7974 708.092 30.7974C707.154 30.7974 706.369 31.1802 705.736 31.9458C705.111 32.7114 704.799 33.9185 704.799 35.5669ZM715.967 35.5552C715.967 33.2505 716.607 31.5435 717.889 30.4341C718.959 29.5122 720.264 29.0513 721.803 29.0513C723.514 29.0513 724.912 29.6138 725.998 30.7388C727.084 31.856 727.627 33.4028 727.627 35.3794C727.627 36.981 727.385 38.2427 726.9 39.1646C726.424 40.0786 725.725 40.7896 724.803 41.2974C723.889 41.8052 722.889 42.0591 721.803 42.0591C720.061 42.0591 718.65 41.5005 717.572 40.3833C716.502 39.2661 715.967 37.6567 715.967 35.5552ZM718.135 35.5552C718.135 37.1489 718.482 38.3442 719.178 39.1411C719.873 39.9302 720.748 40.3247 721.803 40.3247C722.85 40.3247 723.721 39.9263 724.416 39.1294C725.111 38.3325 725.459 37.1177 725.459 35.4849C725.459 33.9458 725.107 32.7817 724.404 31.9927C723.709 31.1958 722.842 30.7974 721.803 30.7974C720.748 30.7974 719.873 31.1919 719.178 31.981C718.482 32.77 718.135 33.9614 718.135 35.5552ZM729.268 38.063L731.354 37.7349C731.471 38.5708 731.795 39.2114 732.326 39.6567C732.865 40.1021 733.615 40.3247 734.576 40.3247C735.545 40.3247 736.264 40.1294 736.732 39.7388C737.201 39.3403 737.436 38.8755 737.436 38.3442C737.436 37.8677 737.229 37.4927 736.814 37.2192C736.525 37.0317 735.807 36.7935 734.658 36.5044C733.111 36.1138 732.037 35.7778 731.436 35.4966C730.842 35.2075 730.389 34.813 730.076 34.313C729.771 33.8052 729.619 33.2466 729.619 32.6372C729.619 32.0825 729.744 31.5708 729.994 31.1021C730.252 30.6255 730.6 30.231 731.037 29.9185C731.365 29.6763 731.811 29.4731 732.373 29.3091C732.943 29.1372 733.553 29.0513 734.201 29.0513C735.178 29.0513 736.033 29.1919 736.768 29.4731C737.51 29.7544 738.057 30.1372 738.408 30.6216C738.76 31.0981 739.002 31.7388 739.135 32.5435L737.072 32.8247C736.979 32.1841 736.705 31.6841 736.252 31.3247C735.807 30.9653 735.174 30.7856 734.354 30.7856C733.385 30.7856 732.693 30.9458 732.279 31.2661C731.865 31.5864 731.658 31.9614 731.658 32.3911C731.658 32.6646 731.744 32.9106 731.916 33.1294C732.088 33.356 732.357 33.5435 732.725 33.6919C732.936 33.77 733.557 33.9497 734.588 34.231C736.08 34.6294 737.119 34.9575 737.705 35.2153C738.299 35.4653 738.764 35.8325 739.1 36.3169C739.436 36.8013 739.604 37.4028 739.604 38.1216C739.604 38.8247 739.396 39.4888 738.982 40.1138C738.576 40.731 737.986 41.2114 737.213 41.5552C736.439 41.8911 735.564 42.0591 734.588 42.0591C732.971 42.0591 731.736 41.7231 730.885 41.0513C730.041 40.3794 729.502 39.3833 729.268 38.063ZM757.1 35.0396V33.0239L764.377 33.0122V39.3872C763.26 40.2778 762.107 40.9497 760.92 41.4028C759.732 41.8481 758.514 42.0708 757.264 42.0708C755.576 42.0708 754.041 41.7114 752.658 40.9927C751.283 40.2661 750.244 39.2192 749.541 37.8521C748.838 36.4849 748.486 34.9575 748.486 33.27C748.486 31.5981 748.834 30.0396 749.529 28.5942C750.232 27.1411 751.24 26.063 752.553 25.3599C753.865 24.6567 755.377 24.3052 757.088 24.3052C758.33 24.3052 759.451 24.5083 760.451 24.9146C761.459 25.313 762.248 25.8716 762.818 26.5903C763.389 27.3091 763.822 28.2466 764.119 29.4028L762.068 29.9653C761.811 29.0903 761.49 28.4028 761.107 27.9028C760.725 27.4028 760.178 27.0044 759.467 26.7075C758.756 26.4028 757.967 26.2505 757.1 26.2505C756.061 26.2505 755.162 26.4106 754.404 26.731C753.646 27.0435 753.033 27.4575 752.564 27.9731C752.104 28.4888 751.744 29.0552 751.486 29.6724C751.049 30.7349 750.83 31.8872 750.83 33.1294C750.83 34.6606 751.092 35.9419 751.615 36.9731C752.146 38.0044 752.916 38.77 753.924 39.27C754.932 39.77 756.002 40.02 757.135 40.02C758.119 40.02 759.08 39.8325 760.018 39.4575C760.955 39.0747 761.666 38.6685 762.15 38.2388V35.0396H757.1ZM775.99 37.77L778.17 38.0396C777.826 39.313 777.189 40.3013 776.26 41.0044C775.33 41.7075 774.143 42.0591 772.697 42.0591C770.877 42.0591 769.432 41.5005 768.361 40.3833C767.299 39.2583 766.768 37.6841 766.768 35.6606C766.768 33.5669 767.307 31.9419 768.385 30.7856C769.463 29.6294 770.861 29.0513 772.58 29.0513C774.244 29.0513 775.604 29.6177 776.658 30.7505C777.713 31.8833 778.24 33.4771 778.24 35.5317C778.24 35.6567 778.236 35.8442 778.229 36.0942H768.947C769.025 37.4614 769.412 38.5083 770.107 39.2349C770.803 39.9614 771.67 40.3247 772.709 40.3247C773.482 40.3247 774.143 40.1216 774.689 39.7153C775.236 39.3091 775.67 38.6606 775.99 37.77ZM769.064 34.3599H776.014C775.92 33.313 775.654 32.5278 775.217 32.0044C774.545 31.1919 773.674 30.7856 772.604 30.7856C771.635 30.7856 770.818 31.1099 770.154 31.7583C769.498 32.4067 769.135 33.2739 769.064 34.3599ZM780.045 35.5552C780.045 33.2505 780.686 31.5435 781.967 30.4341C783.037 29.5122 784.342 29.0513 785.881 29.0513C787.592 29.0513 788.99 29.6138 790.076 30.7388C791.162 31.856 791.705 33.4028 791.705 35.3794C791.705 36.981 791.463 38.2427 790.979 39.1646C790.502 40.0786 789.803 40.7896 788.881 41.2974C787.967 41.8052 786.967 42.0591 785.881 42.0591C784.139 42.0591 782.729 41.5005 781.65 40.3833C780.58 39.2661 780.045 37.6567 780.045 35.5552ZM782.213 35.5552C782.213 37.1489 782.561 38.3442 783.256 39.1411C783.951 39.9302 784.826 40.3247 785.881 40.3247C786.928 40.3247 787.799 39.9263 788.494 39.1294C789.189 38.3325 789.537 37.1177 789.537 35.4849C789.537 33.9458 789.186 32.7817 788.482 31.9927C787.787 31.1958 786.92 30.7974 785.881 30.7974C784.826 30.7974 783.951 31.1919 783.256 31.981C782.561 32.77 782.213 33.9614 782.213 35.5552ZM801.139 41.7778V24.5981H807.619C808.76 24.5981 809.631 24.6528 810.232 24.7622C811.076 24.9028 811.783 25.1724 812.354 25.5708C812.924 25.9614 813.381 26.5122 813.725 27.2231C814.076 27.9341 814.252 28.7153 814.252 29.5669C814.252 31.0278 813.787 32.2661 812.857 33.2817C811.928 34.2896 810.248 34.7935 807.818 34.7935H803.412V41.7778H801.139ZM803.412 32.7661H807.854C809.322 32.7661 810.365 32.4927 810.982 31.9458C811.6 31.3989 811.908 30.6294 811.908 29.6372C811.908 28.9185 811.725 28.3052 811.357 27.7974C810.998 27.2817 810.521 26.9419 809.928 26.7778C809.545 26.6763 808.838 26.6255 807.807 26.6255H803.412V32.7661ZM825.396 37.77L827.576 38.0396C827.232 39.313 826.596 40.3013 825.666 41.0044C824.736 41.7075 823.549 42.0591 822.104 42.0591C820.283 42.0591 818.838 41.5005 817.768 40.3833C816.705 39.2583 816.174 37.6841 816.174 35.6606C816.174 33.5669 816.713 31.9419 817.791 30.7856C818.869 29.6294 820.268 29.0513 821.986 29.0513C823.65 29.0513 825.01 29.6177 826.064 30.7505C827.119 31.8833 827.646 33.4771 827.646 35.5317C827.646 35.6567 827.643 35.8442 827.635 36.0942H818.354C818.432 37.4614 818.818 38.5083 819.514 39.2349C820.209 39.9614 821.076 40.3247 822.115 40.3247C822.889 40.3247 823.549 40.1216 824.096 39.7153C824.643 39.3091 825.076 38.6606 825.396 37.77ZM818.471 34.3599H825.42C825.326 33.313 825.061 32.5278 824.623 32.0044C823.951 31.1919 823.08 30.7856 822.01 30.7856C821.041 30.7856 820.225 31.1099 819.561 31.7583C818.904 32.4067 818.541 33.2739 818.471 34.3599ZM830.213 41.7778V29.3325H832.111V31.2192C832.596 30.3364 833.041 29.7544 833.447 29.4731C833.861 29.1919 834.314 29.0513 834.807 29.0513C835.518 29.0513 836.24 29.2778 836.975 29.731L836.248 31.688C835.732 31.3833 835.217 31.231 834.701 31.231C834.24 31.231 833.826 31.3716 833.459 31.6528C833.092 31.9263 832.83 32.3091 832.674 32.8013C832.439 33.5513 832.322 34.3716 832.322 35.2622V41.7778H830.213ZM846.385 41.7778V39.9497C845.416 41.356 844.1 42.0591 842.436 42.0591C841.701 42.0591 841.014 41.9185 840.373 41.6372C839.74 41.356 839.268 41.0044 838.955 40.5825C838.65 40.1528 838.436 39.6294 838.311 39.0122C838.225 38.5981 838.182 37.9419 838.182 37.0435V29.3325H840.291V36.2349C840.291 37.3364 840.334 38.0786 840.42 38.4614C840.553 39.0161 840.834 39.4536 841.264 39.7739C841.693 40.0864 842.225 40.2427 842.857 40.2427C843.49 40.2427 844.084 40.0825 844.639 39.7622C845.193 39.4341 845.584 38.9927 845.811 38.438C846.045 37.8755 846.162 37.063 846.162 36.0005V29.3325H848.271V41.7778H846.385ZM841.955 27.7856L843.514 24.5044H846.279L843.701 27.7856H841.955Z" fill="#BF0909"/>
<rect x="197.776" y="5.66675" width="0.859894" height="56.6667" fill="#BF0909"/>
<path d="M57.196 50.9614C57.3243 50.9614 57.4098 50.9614 57.4098 50.9614C57.4098 50.9614 57.4098 50.9614 57.4526 50.9614C57.5381 50.9614 59.3771 50.7265 60.4034 49.4113C61.6864 47.7674 62.2424 44.9491 61.0877 43.587C60.489 42.9294 59.8047 42.6476 59.1205 42.7885C58.4362 42.9294 57.8375 43.493 57.5809 44.2446C57.5381 44.3855 57.5809 44.5734 57.7092 44.7143C57.8375 44.8082 58.0086 44.8082 58.1369 44.6673C58.4362 44.3855 58.7356 44.2446 58.9494 44.3385C59.1632 44.3855 59.3343 44.6203 59.4198 44.9491C59.5054 45.231 59.4626 45.6537 59.2915 45.9355C59.2488 46.0295 59.1205 46.1704 58.9494 46.2173C58.4362 46.2643 57.6664 45.6067 56.8967 44.8552C56.1269 44.1506 55.2288 43.3052 54.2024 42.8824C52.8339 42.2718 49.1133 41.3794 46.4618 43.54H46.4191C46.3335 43.587 44.8367 44.8552 44.4946 46.2173C43.9386 47.4856 43.8959 48.6598 44.2808 49.7401C43.9386 50.022 43.7676 50.3977 43.7676 50.7735C43.7676 51.619 44.6657 52.3235 45.8203 52.4175C45.692 52.6053 45.6493 52.8402 45.6493 53.0751C45.6493 53.9675 46.6329 54.719 47.9159 54.719C48.8567 54.719 49.6265 54.3433 49.9686 53.7796C50.3107 54.3433 51.0805 54.719 52.0214 54.719C53.3043 54.719 54.2879 54.0145 54.2879 53.0751C54.2879 52.8402 54.2024 52.6053 54.1169 52.4175C54.8439 52.3705 55.5282 52.0887 55.8703 51.619C55.913 51.619 55.9986 51.572 56.0413 51.525C56.2552 51.2432 56.7684 51.0553 57.196 50.9614ZM59.0349 49.6462C58.6928 49.8341 58.3507 49.975 58.0941 50.0689H58.0513C58.2652 48.2841 57.3243 46.5461 56.9394 45.8886C57.4954 46.4052 58.0086 46.781 58.5218 46.9219C58.8639 47.4386 59.1632 48.378 59.0349 49.6462ZM56.2124 50.4917C56.1269 50.2568 55.913 49.7871 55.5709 48.9886C55.0577 47.7674 53.9458 46.0764 51.5509 45.2779C48.3435 44.1976 46.5901 44.7143 45.7776 45.231C45.8203 45.184 45.8631 45.0901 45.9486 45.0431C45.9914 45.0431 46.0342 44.9961 46.0769 44.9491C46.3335 44.6203 46.5901 44.3855 46.8467 44.1506C47.9586 43.7279 49.6692 43.54 52.1497 44.3385C55.4426 45.4658 56.4262 48.0962 56.7256 49.1765C56.8111 49.5523 56.8967 49.975 56.8967 50.3038C56.8539 50.3038 56.8539 50.3038 56.8111 50.3038C56.7684 50.3038 56.6828 50.3508 56.6401 50.3977C56.5118 50.3508 56.3835 50.4447 56.2124 50.4917ZM51.2088 46.9219C50.7384 47.0628 50.3107 47.2977 50.0541 47.6265C49.6692 47.1568 48.9422 46.828 48.0869 46.828C47.7876 46.828 47.531 46.8749 47.2744 46.9219C48.0869 46.5931 49.1561 46.4992 50.2252 46.6871C50.5673 46.734 50.9095 46.828 51.2088 46.9219ZM48.0869 47.5795C48.985 47.5795 49.6692 48.0492 49.6692 48.4719C49.6692 48.7068 49.4982 48.9416 49.1561 49.0826C49.0705 49.1295 48.985 49.1765 48.8995 49.2235C48.6429 49.3174 48.3863 49.3644 48.0869 49.3644C47.1888 49.3644 46.5046 48.8947 46.5046 48.4719C46.5474 48.0492 47.1888 47.5795 48.0869 47.5795ZM49.1561 49.975C49.2416 49.928 49.3271 49.928 49.4127 49.8811C49.5837 49.8341 49.7548 49.8341 49.9686 49.8341C50.9095 49.8341 51.5509 50.3038 51.5509 50.7265C51.5509 51.1493 50.9095 51.619 49.9686 51.619C49.0278 51.619 48.3863 51.1493 48.3863 50.7265C48.3863 50.4447 48.6856 50.1629 49.1561 49.975ZM50.439 48.4719C50.439 48.0492 51.0805 47.5795 52.0214 47.5795C52.1924 47.5795 52.3207 47.5795 52.4918 47.6265C53.1333 47.7204 53.6037 48.0962 53.6037 48.425V48.4719C53.6037 48.7538 53.3043 49.0356 52.8339 49.2235C52.5773 49.3174 52.3207 49.3644 52.0214 49.3644C51.0805 49.3174 50.439 48.8477 50.439 48.4719ZM45.6493 49.1295C45.6065 48.9886 45.6065 48.8477 45.6493 48.6598C45.692 48.2841 45.8631 47.9553 46.1197 47.6734C45.9486 47.9083 45.8631 48.1431 45.8631 48.425C45.8631 48.6598 45.9486 48.8947 46.0342 49.0826C45.9059 49.0826 45.7776 49.1295 45.6493 49.1295ZM54.1169 49.0826C54.1169 49.1295 54.0741 49.1295 54.1169 49.0826C54.0741 49.0826 54.0741 49.0826 54.1169 49.0826ZM44.4946 50.7265C44.4946 50.5386 44.6657 50.3038 44.9223 50.1629C45.1361 50.022 45.3499 49.975 45.6065 49.928C45.7348 49.8811 45.9059 49.8811 46.0342 49.8811C46.975 49.8811 47.6165 50.3508 47.6165 50.7735C47.6165 51.0083 47.4454 51.1962 47.3171 51.2902C47.0178 51.525 46.5474 51.6659 46.0769 51.6659C45.1361 51.619 44.4946 51.1493 44.4946 50.7265ZM47.9159 53.8736C46.975 53.8736 46.3335 53.4508 46.3335 53.0281C46.3335 52.6054 47.0178 52.1826 47.9159 52.1826V52.1356C47.9159 52.1356 47.9159 52.1356 47.9586 52.1356C48.429 52.1356 48.8567 52.2766 49.1561 52.4644C49.2844 52.5584 49.4982 52.7463 49.4982 52.9811C49.4982 53.4508 48.8567 53.8736 47.9159 53.8736ZM52.0214 53.8736C51.0805 53.8736 50.439 53.4039 50.439 52.9811C50.439 52.8402 50.4818 52.6993 50.6101 52.5584C50.9095 52.2766 51.4226 52.0887 51.9786 52.0887C52.278 52.0887 52.5345 52.1356 52.7911 52.2296C53.2616 52.3705 53.5609 52.6993 53.5609 52.9811C53.5609 53.4039 52.9194 53.8736 52.0214 53.8736ZM55.3571 50.9614C55.186 51.2432 54.6301 51.572 53.8603 51.572C53.6037 51.572 53.3471 51.525 53.1333 51.4781C52.6201 51.3371 52.3207 51.0083 52.3207 50.7265C52.3207 50.4447 52.6201 50.1629 53.0905 49.975C53.3471 49.8811 53.6037 49.8341 53.9031 49.8341C54.0741 49.8341 54.2452 49.8341 54.4162 49.8811C55.015 50.022 55.4426 50.3508 55.4426 50.6796C55.4426 50.8205 55.3999 50.8674 55.3571 50.9614Z" fill="#BF0909"/>
<path d="M75.628 41.9431V21.323C75.628 21.0881 75.5425 20.8532 75.3714 20.7593C75.2004 20.6184 74.9866 20.6184 74.8155 20.7593L72.891 21.9805V14.7001C72.891 14.4652 72.7627 14.2304 72.5917 14.1364C72.3778 14.0425 72.164 14.0425 71.993 14.1364L62.7556 20.5245C62.67 20.5245 62.5845 20.5245 62.499 20.5714C60.9166 21.1351 59.4198 21.4169 58.0941 21.4169C53.6465 21.4169 52.1924 18.3168 52.1497 18.1759C52.0641 17.9411 51.8503 17.7532 51.6365 17.7532C51.4226 17.7532 51.2088 17.9411 51.1233 18.1759C51.0805 18.3168 49.6265 21.3699 45.1788 21.3699C43.8531 21.3699 42.3563 21.0881 40.774 20.5714C40.7312 20.5714 40.6884 20.5714 40.6457 20.5714L31.4083 14.1364C31.2372 13.9955 30.9379 13.9955 30.724 14.1364C30.5102 14.2304 30.3391 14.4652 30.3391 14.7001V21.9336L28.4574 20.7123C28.2864 20.6184 27.987 20.6184 27.816 20.7123C27.6877 20.9002 27.5166 21.0881 27.5166 21.323V41.9431C27.5166 42.2249 27.5594 47.1568 31.28 51.3372C34.6157 55.0948 39.8331 56.9737 46.7612 56.9737C46.8039 56.9737 46.8895 56.9737 46.9322 56.9267C49.5409 57.7722 51.0377 58.4767 51.0377 60.7783C51.0377 61.1071 51.2943 61.3889 51.5937 61.3889C51.8931 61.3889 52.1497 61.1071 52.1497 60.7783C52.1497 58.4298 53.6465 57.7252 56.2979 56.8797C56.3835 56.9267 56.4262 56.9267 56.5118 56.9267C63.4398 56.9267 68.5717 55.0479 71.9074 51.2902C75.7136 47.1568 75.628 42.2249 75.628 41.9431ZM42.9123 35.8839C43.7248 35.5551 44.0242 33.9111 44.0242 33.9111C44.0242 33.9111 45.2216 34.7566 46.1197 34.3338C46.1197 34.7096 45.9914 35.4141 45.9914 35.4141C45.9914 35.4141 45.8631 35.8839 46.1197 36.4475C46.248 36.7293 46.3335 37.3399 46.3763 37.7157C45.9486 37.7157 45.521 37.7157 45.0505 37.7157C44.2808 37.7157 43.5965 37.7157 42.9123 37.7627C42.8695 37.0111 42.9123 36.6354 42.9123 35.8839ZM57.2388 34.6156H58.7783C58.6928 35.4611 58.6928 36.3536 58.9494 37.6687C58.9066 37.6687 58.9066 37.6687 58.8639 37.6687L57.0677 37.4809C57.2815 36.3066 57.3243 35.5081 57.2388 34.6156ZM69.6836 37.3869C68.6145 38.5612 67.1604 39.1718 65.3643 39.1718C64.9366 37.7627 64.7228 36.4475 64.6372 35.2263L71.6508 30.9519C71.6936 31.6095 71.6508 35.1793 69.6836 37.3869ZM31.7076 30.9519L38.6357 35.1793C38.5929 36.4475 38.3791 37.7627 37.9087 39.2188C36.1553 39.2188 34.7012 38.6081 33.6749 37.4339C31.7504 35.2263 31.7076 31.6095 31.7076 30.9519ZM74.4306 22.4502V35.2732L71.3515 37.1521C72.9338 34.4747 72.891 31.0928 72.891 30.811V23.4836L74.4306 22.4502ZM71.5653 22.6851L66.3051 25.9261C66.0057 25.5503 65.1932 24.423 63.4826 21.5108L71.5653 15.8744C71.5653 15.9213 71.5653 22.6851 71.5653 22.6851ZM57.9658 22.6851C59.2915 22.6851 60.8311 22.4502 62.3707 21.9336C64.0385 24.8458 64.9794 26.1609 65.407 26.7246C64.5945 28.1337 62.3707 32.8308 64.0385 38.89C63.1832 38.0915 61.6009 37.7627 59.6337 37.7157C59.3771 36.4005 59.3771 35.5081 59.4626 34.6626H62.3707C62.67 34.6626 62.5845 34.099 62.5845 33.6293V30.6701C62.5845 28.4155 61.5154 28.2746 61.5154 28.2746C61.5154 28.2746 60.8311 28.1807 60.489 27.1003C60.1468 26.067 59.5909 25.1745 58.7356 25.0806C57.923 24.9867 56.5545 25.7382 55.4854 26.3488C54.8439 26.7246 54.8011 27.2882 54.7156 28.0398C54.5018 29.8716 53.8603 29.7777 53.8603 29.7777C53.5609 29.7777 53.3043 30.1534 53.3043 30.6231V33.5823C53.3043 34.052 53.5609 34.6156 53.8603 34.6156H56.5973C56.6828 35.4611 56.5118 36.3066 56.2124 37.6687C54.2879 37.7627 52.8339 38.1384 51.8503 38.9839V20.1957C52.9194 21.276 54.8011 22.6851 57.9658 22.6851ZM50.6956 20.6654V38.6551C49.9258 38.0915 48.6856 37.8096 47.1461 37.7157C46.975 36.8233 47.0178 34.7096 47.2316 34.099C48.4718 33.8171 48.5146 32.408 48.6001 31.2338C48.6429 30.3883 48.3435 27.3352 48.3435 27.3352C48.4718 27.2413 48.985 27.1003 49.1133 27.0534C49.2844 27.0534 49.4127 26.9594 49.4982 26.7715C49.5409 26.5367 49.6265 26.2079 49.5409 26.114C49.4554 25.973 48.8567 25.9261 48.7284 25.6912C48.429 25.3624 48.1724 25.1276 47.8731 25.1745C47.4882 25.2215 47.1461 25.1745 46.9322 25.6443C46.5901 25.3624 46.248 25.7382 45.8631 25.5973C45.8631 25.5973 45.7776 27.0064 47.1033 26.8655L47.2316 30.5762C47.2316 30.5762 47.3171 31.3277 46.3763 31.1398C45.6493 30.9989 43.9386 30.2474 43.1261 30.5292C42.4846 30.7171 41.8431 31.0928 41.4155 32.502C41.0306 33.9581 41.6721 33.4414 41.6721 33.4414L42.3563 32.9247C42.3563 32.9247 42.8267 34.1929 42.2708 34.8975C41.8431 35.4611 42.0142 35.8839 42.0142 35.8839C42.0142 35.8839 42.1852 37.1521 42.1852 37.8096C40.9023 37.9506 39.8759 38.2324 39.2344 38.796C40.8595 32.7838 38.6357 28.1337 37.8231 26.7246C38.2936 26.1609 39.1489 24.8458 40.8595 21.9336C42.3991 22.4502 43.8531 22.6851 45.1788 22.6851C47.8731 22.6851 49.5837 21.6517 50.6956 20.6654ZM31.7076 15.9213L39.7048 21.5108C38.037 24.376 37.2672 25.5033 36.9251 25.9261L31.7076 22.6851V15.9213ZM30.3819 23.4836V30.811C30.3819 31.1398 30.2964 34.4747 31.8787 37.1521L28.7568 35.2732V22.4502L30.3819 23.4836ZM29.0989 44.0098L36.7968 48.6599C37.4382 50.7735 38.8923 52.4645 40.9878 54.2024C41.5438 54.6721 42.1852 55.0948 42.8267 55.4236C38.208 54.813 34.6585 53.169 32.2208 50.4447C30.2536 48.1902 29.3983 45.7007 29.0989 44.0098ZM51.6365 58.4298C50.6956 56.8328 48.7712 56.2221 46.7612 55.6115C45.0078 55.0479 43.1689 54.4373 41.6721 53.216C37.8659 49.975 36.4546 47.2977 38.5074 40.8627H64.7228C66.8183 47.2977 65.407 49.975 61.5581 53.216C60.0613 54.4842 58.2652 55.0479 56.469 55.6115C54.5018 56.1752 52.5773 56.7858 51.6365 58.4298ZM71.1804 50.3978C68.7 53.169 65.1077 54.86 60.4462 55.4236C61.0877 55.0948 61.7292 54.7191 62.2851 54.2024C64.3379 52.4645 65.7919 50.8205 66.4334 48.7068C66.4762 48.7068 66.5189 48.6599 66.5617 48.6599L74.2595 44.0098C73.9602 45.7007 73.1476 48.1902 71.1804 50.3978Z" fill="#BF0909"/>
<path d="M51.5504 17.3305C55.0572 17.2835 57.837 15.3577 57.837 12.9152C57.837 10.4728 55.0572 8.5 51.5504 8.5C48.0436 8.5 45.3066 10.4258 45.3066 12.8683C45.3066 15.3577 48.0436 17.2835 51.5504 17.3305ZM51.5504 10.144C53.3466 10.144 54.6723 10.9425 54.6723 11.9289C54.6723 12.6804 53.9453 13.338 52.8334 13.6198C51.7643 13.9956 52.1492 14.4183 51.5932 14.7941C51.0372 14.4183 51.4649 13.9956 50.353 13.6198C49.1983 13.338 48.4713 12.6804 48.4713 11.9289C48.4713 10.9425 49.797 10.144 51.5504 10.144Z" fill="#BF0909"/>
<path d="M108.715 28.2899V40.5528C108.715 45.6341 106.371 48.2086 101.621 48.2086C100.326 48.2086 99.1536 48.0054 98.0432 47.6666C96.9329 47.3279 95.9459 46.7859 95.2057 46.1761L96.5628 43.6016C97.118 44.1436 97.8582 44.5501 98.7218 44.8211C99.5854 45.1598 100.511 45.2953 101.436 45.2953C102.855 45.2953 103.965 44.9566 104.644 44.2113C105.322 43.4661 105.631 42.3821 105.631 40.8915V40.214C105.075 40.8238 104.459 41.2981 103.718 41.6368C102.978 41.9756 102.114 42.1111 101.251 42.1111C100.017 42.1111 98.8452 41.8401 97.8582 41.2303C96.8712 40.6205 96.0693 39.8075 95.4525 38.7235C94.8973 37.6395 94.5889 36.42 94.5889 35.065C94.5889 33.71 94.8973 32.4905 95.4525 31.4065C96.0693 30.3224 96.8712 29.5094 97.8582 28.9674C98.9068 28.3577 100.017 28.0867 101.251 28.0867C102.176 28.0867 103.04 28.2899 103.842 28.6287C104.644 28.9674 105.26 29.5094 105.816 30.1869V28.2899H108.715ZM101.683 39.2655C102.855 39.2655 103.78 38.859 104.52 38.1138C105.26 37.3685 105.631 36.3523 105.631 35.1327C105.631 33.9132 105.26 32.9647 104.52 32.1517C103.78 31.4065 102.855 30.9999 101.683 30.9999C100.511 30.9999 99.5237 31.4065 98.7835 32.1517C98.0432 32.897 97.6731 33.9132 97.6731 35.1327C97.6731 36.3523 98.0432 37.3685 98.7835 38.1138C99.5237 38.859 100.511 39.2655 101.683 39.2655Z" fill="#BF0909"/>
<path d="M118.646 42.9922C117.289 42.9922 116.117 42.6534 115.068 42.0437C114.02 41.4339 113.156 40.5532 112.539 39.4014C111.923 38.2496 111.676 36.9624 111.676 35.5396C111.676 34.1168 111.984 32.8296 112.539 31.7456C113.156 30.5938 113.958 29.7808 115.068 29.1033C116.117 28.4935 117.351 28.1548 118.646 28.1548C120.003 28.1548 121.175 28.4935 122.286 29.1033C123.334 29.7131 124.198 30.5938 124.753 31.7456C125.37 32.8973 125.678 34.1168 125.678 35.5396C125.678 36.9624 125.37 38.2496 124.753 39.4014C124.136 40.5532 123.334 41.3662 122.286 42.0437C121.237 42.6534 120.003 42.9922 118.646 42.9922ZM118.646 40.0789C119.757 40.0789 120.744 39.6724 121.484 38.8594C122.224 38.0464 122.594 36.9624 122.594 35.6074C122.594 34.2523 122.224 33.1683 121.484 32.3553C120.744 31.5423 119.818 31.1358 118.646 31.1358C117.474 31.1358 116.549 31.5423 115.809 32.3553C115.068 33.1683 114.698 34.2523 114.698 35.6074C114.698 36.9624 115.068 38.0464 115.809 38.8594C116.611 39.6724 117.536 40.0789 118.646 40.0789Z" fill="#BF0909"/>
<path d="M135.919 28.1546C137.214 28.1546 138.324 28.4933 139.373 29.1031C140.422 29.7128 141.162 30.5936 141.779 31.6776C142.396 32.7616 142.642 34.1166 142.642 35.5394C142.642 37.0299 142.334 38.3172 141.779 39.4689C141.223 40.6207 140.422 41.4337 139.373 42.0434C138.386 42.6532 137.214 42.9919 135.919 42.9919C134.993 42.9919 134.191 42.7887 133.451 42.4499C132.711 42.1112 132.094 41.5692 131.601 40.8917V42.7887H128.64V22.6667H131.724V30.0516C132.279 29.4418 132.896 28.9676 133.574 28.6288C134.315 28.2901 135.055 28.1546 135.919 28.1546ZM135.61 40.0787C136.72 40.0787 137.646 39.6722 138.386 38.8592C139.126 38.0461 139.496 36.9621 139.496 35.6071C139.496 34.2521 139.126 33.1681 138.386 32.3551C137.646 31.5421 136.72 31.1356 135.61 31.1356C134.87 31.1356 134.191 31.3388 133.636 31.6776C133.019 32.0163 132.588 32.5583 132.217 33.2359C131.847 33.9134 131.724 34.7264 131.724 35.6071C131.724 36.4879 131.909 37.3009 132.217 37.9784C132.588 38.6559 133.019 39.1979 133.636 39.6044C134.191 39.8754 134.87 40.0787 135.61 40.0787Z" fill="#BF0909"/>
<path d="M146.281 42.9918C145.726 42.9918 145.232 42.7886 144.862 42.3821C144.492 41.9755 144.245 41.4335 144.245 40.756C144.245 40.0785 144.43 39.5365 144.8 39.13C145.17 38.7235 145.664 38.5203 146.281 38.5203C146.836 38.5203 147.329 38.7235 147.7 39.13C148.07 39.5365 148.316 40.0785 148.316 40.756C148.316 41.4335 148.131 41.9755 147.7 42.3821C147.329 42.7886 146.836 42.9918 146.281 42.9918Z" fill="#BF0909"/>
<path d="M158.619 28.1548C159.914 28.1548 161.024 28.4935 162.073 29.1033C163.122 29.7131 163.862 30.5938 164.479 31.6778C165.034 32.8296 165.342 34.1168 165.342 35.5396C165.342 37.0301 165.034 38.3174 164.479 39.4691C163.924 40.6209 163.122 41.4339 162.073 42.0437C161.086 42.6534 159.914 42.9922 158.619 42.9922C156.83 42.9922 155.411 42.3147 154.424 41.0274V48.0735H151.34V28.2903H154.301V30.1873C154.794 29.5098 155.411 28.9678 156.151 28.629C156.83 28.358 157.693 28.1548 158.619 28.1548ZM158.249 40.0789C159.359 40.0789 160.284 39.6724 161.024 38.8594C161.765 38.0464 162.135 36.9624 162.135 35.6074C162.135 34.2523 161.765 33.1683 161.024 32.3553C160.284 31.5423 159.359 31.1358 158.249 31.1358C157.508 31.1358 156.83 31.3391 156.275 31.6778C155.658 32.0166 155.226 32.5586 154.856 33.2361C154.486 33.9136 154.362 34.7266 154.362 35.6074C154.362 36.4881 154.547 37.3011 154.856 37.9786C155.226 38.6561 155.658 39.1981 156.275 39.6046C156.83 39.8757 157.508 40.0789 158.249 40.0789Z" fill="#BF0909"/>
<path d="M180.578 35.607C180.578 35.8102 180.578 36.149 180.517 36.6233H170.154C170.339 37.7073 170.832 38.5203 171.572 39.1978C172.374 39.8075 173.3 40.1463 174.41 40.1463C175.829 40.1463 177.062 39.6043 177.988 38.588L179.653 40.6883C179.036 41.4336 178.296 42.0433 177.432 42.4498C176.507 42.8563 175.52 43.0596 174.348 43.0596C172.929 43.0596 171.634 42.7208 170.524 42.1111C169.413 41.5013 168.55 40.6205 167.933 39.4688C167.316 38.317 167.069 37.0298 167.069 35.607C167.069 34.1842 167.378 32.9647 167.933 31.813C168.55 30.6612 169.352 29.7804 170.4 29.1707C171.449 28.5609 172.621 28.2222 173.916 28.2222C175.212 28.2222 176.322 28.5609 177.371 29.1707C178.419 29.7804 179.16 30.6612 179.715 31.813C180.27 32.8292 180.578 34.1842 180.578 35.607ZM173.916 30.8644C172.929 30.8644 172.066 31.2032 171.387 31.813C170.709 32.4227 170.277 33.3035 170.154 34.3875H177.618C177.494 33.3712 177.062 32.4905 176.384 31.813C175.767 31.2032 174.903 30.8644 173.916 30.8644Z" fill="#BF0909"/>
</svg>
