<svg width="138" height="68" viewBox="0 0 138 68" fill="none" xmlns="http://www.w3.org/2000/svg">
<g clip-path="url(#clip0)">
<path d="M139 0H0V68H139V0Z" fill="#FF3535"/>
<path d="M37.4335 56.2272H39.0606V59.8688C38.5957 60.2562 38.0534 60.5661 37.4335 60.7211C36.8137 60.876 36.1938 61.031 35.4965 61.031C34.5667 61.031 33.7145 60.7986 33.0171 60.4112C32.2423 60.0238 31.7 59.4814 31.3126 58.7066C30.8477 58.0093 30.6152 57.2345 30.6152 56.3047C30.6152 55.4524 30.8477 54.6001 31.2351 53.9028C31.6225 53.2055 32.2423 52.6631 33.0171 52.1982C33.7919 51.8108 34.5667 51.5784 35.574 51.5784C36.3488 51.5784 37.0461 51.7333 37.666 51.9658C38.2858 52.1982 38.8282 52.5856 39.2156 53.0505L38.1309 54.1352C37.4335 53.4379 36.5812 53.0505 35.6515 53.0505C35.0316 53.0505 34.4118 53.2055 33.9469 53.4379C33.4045 53.6703 33.0946 54.0577 32.7847 54.6001C32.4748 55.065 32.3973 55.6848 32.3973 56.2272C32.3973 56.7696 32.5523 57.3894 32.7847 57.8543C33.0946 58.3192 33.482 58.7066 33.9469 59.0165C34.4893 59.3264 35.0316 59.4039 35.6515 59.4039C36.3488 59.4039 36.9686 59.249 37.511 58.939L37.4335 56.2272Z" fill="white"/>
<path d="M49.5214 59.4819V60.8765H42.7031V51.8113H49.289V53.2059H44.3302V55.5304H48.7466V56.925H44.3302V59.4044H49.5214V59.4819Z" fill="white"/>
<path d="M54.4787 60.4112C53.7039 60.0238 53.1615 59.4814 52.7741 58.7066C52.3867 58.0093 52.1543 57.157 52.1543 56.3047C52.1543 55.4524 52.3867 54.6001 52.7741 53.9028C53.1615 53.2055 53.7814 52.6631 54.4787 52.1982C55.2535 51.8108 56.0283 51.5784 56.9581 51.5784C57.8879 51.5784 58.7402 51.8108 59.4375 52.1982C60.2123 52.5856 60.7547 53.128 61.1421 53.9028C61.5295 54.6001 61.7619 55.4524 61.7619 56.3047C61.7619 57.157 61.5295 58.0093 61.1421 58.7066C60.7547 59.4039 60.1348 59.9463 59.4375 60.4112C58.6627 60.7986 57.8879 61.031 56.9581 61.031C56.1058 61.031 55.2535 60.7986 54.4787 60.4112ZM58.6627 59.094C59.1276 58.7841 59.515 58.4741 59.8249 57.9318C60.1348 57.4669 60.2123 56.9245 60.2123 56.3047C60.2123 55.6848 60.0573 55.1425 59.8249 54.6776C59.515 54.2127 59.1276 53.8253 58.6627 53.5154C58.1978 53.2055 57.6554 53.128 57.0356 53.128C56.4157 53.128 55.8734 53.2829 55.4085 53.5154C54.9436 53.8253 54.5562 54.1352 54.2463 54.6776C53.9364 55.1425 53.8589 55.6848 53.8589 56.3047C53.8589 56.9245 54.0138 57.4669 54.2463 57.9318C54.5562 58.3967 54.9436 58.7841 55.4085 59.094C55.8734 59.4039 56.4157 59.4814 57.0356 59.4814C57.5779 59.5589 58.1203 59.4039 58.6627 59.094Z" fill="white"/>
<path d="M75.8641 52.1987C76.4065 52.4311 76.8714 52.8185 77.1813 53.2834C77.4912 53.7483 77.6462 54.3681 77.6462 54.988C77.6462 55.6853 77.4912 56.2277 77.1813 56.6926C76.8714 57.1574 76.4065 57.5448 75.8641 57.7773C75.3218 58.0097 74.6244 58.1647 73.7721 58.1647H71.6802V60.799H69.9756V51.8113H73.6947C74.6244 51.8113 75.3218 51.8888 75.8641 52.1987ZM75.3992 56.3826C75.7866 56.0727 75.9416 55.6078 75.9416 55.0655C75.9416 54.5231 75.7866 54.0582 75.3992 53.7483C75.0118 53.4384 74.4695 53.2834 73.6947 53.2834H71.7576V56.925H73.6947C74.4695 56.8475 75.0118 56.6926 75.3992 56.3826Z" fill="white"/>
<path d="M87.5634 59.4819V60.8765H80.7451V51.8113H87.331V53.2059H82.3722V55.5304H86.7886V56.925H82.3722V59.4044H87.5634V59.4819Z" fill="white"/>
<path d="M96.784 60.8765L94.9245 58.2422C94.847 58.2422 94.7695 58.2422 94.6146 58.2422H92.6001V60.8765H90.8955V51.8113H94.6146C95.3894 51.8113 96.0867 51.9662 96.7066 52.1987C97.2489 52.4311 97.7138 52.8185 98.0237 53.2834C98.3336 53.7483 98.4886 54.3681 98.4886 54.988C98.4886 55.6853 98.3336 56.2277 97.9462 56.77C97.6363 57.2349 97.094 57.6223 96.5516 57.8548L98.6436 60.799L96.784 60.8765ZM96.2417 53.6708C95.8543 53.3609 95.3119 53.2059 94.5371 53.2059H92.6001V56.8475H94.5371C95.2344 56.8475 95.8543 56.6926 96.2417 56.3826C96.6291 56.0727 96.784 55.6078 96.784 55.0655C96.784 54.4456 96.6291 53.9807 96.2417 53.6708Z" fill="white"/>
<path d="M102.749 59.9464C102.052 59.2491 101.742 58.2419 101.742 56.9247V51.811H103.447V56.8473C103.447 58.6293 104.222 59.4816 105.771 59.4816C107.321 59.4816 108.096 58.6293 108.096 56.8473V51.811H109.723V56.9247C109.723 58.2419 109.413 59.2491 108.715 59.9464C108.018 60.6437 107.011 61.0312 105.771 61.0312C104.454 61.0312 103.447 60.6437 102.749 59.9464ZM106.314 49.2542H108.251L106.004 51.0362H104.609L106.314 49.2542Z" fill="white"/>
<path d="M108.252 41.0413L104.455 33.9131C104.378 33.7581 104.223 33.6806 104.068 33.6031L100.194 32.5959L92.7557 23.6856C92.6783 23.6081 92.6783 23.6081 92.6008 23.5307H92.5233C92.5233 23.5307 92.4458 23.5307 92.3683 23.4532L79.6615 20.354L68.0394 7.87957C67.9619 7.80209 67.8844 7.80209 67.807 7.72461H67.7295C67.652 7.72461 67.5745 7.72461 67.5745 7.72461H67.497C67.4196 7.72461 67.3421 7.80209 67.2646 7.80209L62.8482 12.296C62.8482 12.296 62.7707 12.3734 62.7707 12.4509L56.9597 22.2135C56.9597 22.2135 56.9597 22.2135 56.8822 22.291L53.0856 26.01L47.1971 19.9666C47.0421 19.8116 46.8872 19.7341 46.7322 19.8116C46.5773 19.8116 46.3448 19.8891 46.2673 20.044L41.4635 26.6299L41.3861 26.7074L37.0471 36.4699L33.8704 38.0195C33.7155 38.097 33.638 38.1745 33.5605 38.3295L32.0884 41.4287C32.0109 41.5837 32.0109 41.8161 32.0884 41.9711C32.1659 42.126 32.3208 42.281 32.5533 42.281L41.7735 43.9081H41.8509L76.0199 45.1478H76.0974L92.9882 44.6829H93.0657C93.0657 44.6829 93.0657 44.6829 93.1431 44.6829L107.942 41.9711C108.174 41.9711 108.369 41.7736 108.407 41.6611C108.484 41.4287 108.329 41.1962 108.252 41.0413ZM81.9084 32.131L74.7027 19.4242L78.8092 21.3612L81.9084 32.131ZM71.4486 32.9058L80.9787 36.16L74.4703 36.7799V36.7024C74.4703 36.6249 74.3928 36.5474 74.3928 36.4699L71.4486 32.9058ZM73.0756 36.9348L60.5238 38.1745L55.2551 31.8211L69.3566 32.2085L73.0756 36.9348ZM70.4413 31.2012L73.3856 19.6566L82.2958 35.3852L70.4413 31.2012ZM76.6398 19.0368L73.618 17.5647L70.8287 12.6834L76.6398 19.0368ZM67.7295 9.73911L72.4558 18.107L69.1241 30.9688L63.1581 30.7364L65.1726 17.0223L67.7295 9.73911ZM63.7005 13.1483L66.1799 10.6689L64.0879 16.7898V16.8673L62.2284 29.4967L58.1219 22.6784L63.7005 13.1483ZM57.2696 23.6856L61.531 30.8138L54.4803 30.5814L53.783 27.1723L57.2696 23.6856ZM46.8097 21.3612L52.5433 27.1723L53.2406 30.7364L47.507 34.3005L42.7032 27.0173L46.8097 21.3612ZM33.483 41.1962L34.4903 39.0268L37.2021 37.7096L40.3788 42.3585L33.483 41.1962ZM38.2094 36.8573L42.0834 28.257L46.6547 35.2302L41.7735 42.126L38.2094 36.8573ZM47.817 35.6951L53.8604 31.8986L59.2066 38.4069L43.2456 42.281L47.817 35.6951ZM46.2673 42.8233L60.4463 39.4142L73.618 38.1745L75.2451 43.9081L46.2673 42.8233ZM76.4073 43.9081L74.7802 38.0195L83.613 37.1673L91.2061 43.5207L76.4073 43.9081ZM84.3878 36.16L80.2039 21.8261L91.5935 24.6154L92.2909 42.7459L84.3878 36.16ZM92.9107 25.8551L99.0317 33.1383L93.4531 41.9711L92.9107 25.8551ZM94.2279 43.2107L100.116 33.8356L103.448 34.7654L106.78 40.8863L94.2279 43.2107Z" fill="white"/>
</g>
<defs>
<clipPath id="clip0">
<rect width="138" height="68" fill="white"/>
</clipPath>
</defs>
</svg>
